<svg xmlns="http://www.w3.org/2000/svg" width="32" height="24"><path fill-rule="evenodd" fill="#FFF" d="M31.95 22.503v.002a.993.993 0 0 1-.995.992h-7.412c.556-.123.972-.614.972-1.205l-.001-.002h.001s0-4.504-3.301-6.142c-1.412-.7-1.505-.567-2.206-.732l.02-1.95s-.771-.588-1.011-2.431c-.482.14-.641-.564-.67-1.013-.026-.431-.279-1.783.31-1.66-.121-.902-.207-1.715-.165-2.147.148-1.513 1.61-3.093 3.861-3.208 2.649.115 3.698 1.694 3.845 3.207.043.431-.051 1.246-.172 2.146.589-.121.333 1.228.304 1.66-.025.449-.188 1.15-.669 1.01-.241 1.843-1.012 2.426-1.012 2.426l.018 1.948s.488.278 2.546 1.127c2.058.851 1.412.214 3.088 1.045 2.649 1.314 2.649 4.927 2.649 4.927zM17.023 15.84c2.262.935 1.552.235 3.395 1.149 2.912 1.444 2.912 5.416 2.912 5.416h-.001v.002c0 .602-.489 1.09-1.093 1.09H1.093A1.091 1.091 0 0 1 0 22.407v-.002h-.001s0-3.972 2.912-5.417c1.843-.913 1.133-.171 3.395-1.106 2.262-.934 2.798-1.26 2.798-1.26l.021-2.152s-.847-.646-1.11-2.67c-.53.153-.705-.621-.736-1.114-.029-.474-.307-1.959.339-1.825-.132-.992-.227-1.886-.18-2.358C7.6 2.839 9.207 1.102 11.682.975c2.911.126 4.065 1.863 4.226 3.525.047.474-.056 1.368-.189 2.359.647-.132.366 1.35.334 1.825-.028.492-.207 1.263-.736 1.11-.264 2.025-1.111 2.665-1.111 2.665l.019 2.142s.536.305 2.798 1.239z"/></svg>